<svg width="2155" height="854" viewBox="0 0 2155 854" fill="none" xmlns="http://www.w3.org/2000/svg">
<!-- Zeus Gym Text -->
<path d="M985.058 284.2H1100V355H1015L1070 415L1025 475H1100V545H985.058L890 415L985.058 284.2Z" fill="white"/>
<path d="M1150 284.2H1300V345H1200V380H1280V440H1200V485H1300V545H1150V284.2Z" fill="white"/>
<path d="M1350 284.2H1425V485H1475V355H1530V485H1580V545H1425V525C1425 505 1415 495 1395 495H1375V545H1350V284.2Z" fill="white"/>
<path d="M1630 370C1670 350 1710 360 1740 380C1760 395 1770 420 1770 450C1770 480 1760 505 1740 520C1720 535 1690 540 1660 535C1650 533 1640 530 1630 525V545H1580V370H1630ZM1630 420V480C1645 485 1660 485 1675 480C1685 477 1692 470 1695 460C1698 450 1695 440 1690 432C1682 420 1665 415 1650 420C1643 422 1636 421 1630 420Z" fill="white"/>

<!-- Gym text -->
<path d="M890 600H980V665H930V700H1000V760H890V735C890 715 900 705 920 705H940V665H890V600Z" fill="white"/>
<path d="M1050 665C1020 665 1000 645 1000 615V650C1000 620 1020 600 1050 600C1065 600 1078 605 1088 615L1070 645C1065 640 1058 637 1050 637C1040 637 1033 644 1033 654V661C1033 671 1040 678 1050 678C1058 678 1065 675 1070 670L1088 700C1078 710 1065 715 1050 715C1020 715 1000 695 1000 665Z" fill="white"/>
<path d="M1138 600H1188V665H1238V600H1288V760H1238V700H1188V760H1138V600Z" fill="white"/>

<!-- Decorative elements -->
<rect x="300" width="256" height="256" rx="64" fill="#46BCAA"/>
<circle cx="128" cy="726" r="128" fill="#4D69FA"/>
<rect x="300" y="355" width="256" height="144" fill="#6C5DD3"/>
<path d="M128 24L238.851 216H17.1488L128 24Z" fill="#FFCF52"/>
<path d="M128 307L238.851 367.197V487.59L128 547.787L17.1488 487.59V367.197L128 307Z" fill="#F35421"/>

<!-- Zeus icon/symbol -->
<path d="M700 200L850 350L750 350L800 500L650 350L750 350L700 200Z" fill="#FFCF52"/>
</svg>